<?xml version="1.0" standalone="no"?>
<!DOCTYPE svg PUBLIC "-//W3C//DTD SVG 20010904//EN"
 "http://www.w3.org/TR/2001/REC-SVG-20010904/DTD/svg10.dtd">
<svg version="1.0" xmlns="http://www.w3.org/2000/svg"
 width="1080.000000pt" height="1080.000000pt" viewBox="0 0 1080.000000 1080.000000"
 preserveAspectRatio="xMidYMid meet">
<metadata>
Created by potrace 1.11, written by Peter Selinger 2001-2013
</metadata>
<g transform="translate(0.000000,1080.000000) scale(0.100000,-0.100000)"
fill="#000000" stroke="none">
<path d="M2366 9479 c3 -46 34 -562 68 -1146 34 -584 65 -1065 68 -1068 3 -3
165 -70 359 -149 l354 -143 15 -244 15 -244 917 -370 c504 -203 1117 -451
1362 -549 245 -99 446 -182 446 -185 0 -3 -779 -323 -1731 -710 -951 -387
-1733 -709 -1737 -715 -7 -12 -143 -2279 -136 -2285 2 -2 185 84 405 193 221
108 403 195 404 194 2 -2 -12 -263 -31 -582 -19 -318 -32 -581 -29 -584 3 -3
168 75 367 173 1586 778 5117 2508 5721 2803 l257 125 0 844 0 844 -375 184
-375 184 0 200 c0 197 0 201 -22 215 -13 8 -243 122 -513 254 -613 299 -3931
1923 -4995 2444 -437 214 -801 392 -808 395 -10 4 -11 -13 -6 -78z"/>
</g>
</svg>
